<svg version="1.2" baseProfile="tiny-ps" xmlns="http://www.w3.org/2000/svg" viewBox="0 0 1104 322" width="1104" height="322">
	<title>Falcon</title>
	<style>
		tspan { white-space:pre }
		.s0 { fill: #2c2e35 } 
	</style>
	<g id="Calque 1">
		<g id="&lt;Group&gt;">
			<g id="&lt;Group&gt;">
				<path id="&lt;Compound Path&gt;" class="s0" d="m86.72-0.23c4.65 0 8.5 1.58 11.55 4.73c3.05 3.16 4.58 7 4.58 11.55c0 4.65-1.53 8.51-4.58 11.55c-3.05 3.05-6.9 4.58-11.55 4.58c-12.82 0-19.23 6.41-19.23 19.23v74.13c0 14.89-3.41 26.68-10.24 35.36c6.82 8.69 10.24 20.47 10.24 35.36v74.14c0 12.82 6.41 19.23 19.23 19.23c4.65 0 8.5 1.52 11.55 4.58c3.05 3.05 4.58 6.9 4.58 11.55c0 4.65-1.53 8.53-4.58 11.63c-3.05 3.1-6.9 4.65-11.55 4.65c-34.43 0-51.65-17.22-51.65-51.65v-74.14c0-12.82-6.36-19.23-19.08-19.23c-4.65 0-8.5-1.53-11.56-4.57c-3.05-3.05-4.57-6.9-4.57-11.55c0-4.65 1.52-8.51 4.57-11.56c3.05-3.05 6.9-4.58 11.56-4.58c12.72 0 19.08-6.41 19.08-19.23v-74.13c0-34.43 17.22-51.65 51.65-51.65z" />
				<path id="&lt;Compound Path&gt;" class="s0" d="m1068.71 51.42v74.13c0 12.82 6.36 19.23 19.07 19.23c4.66 0 8.5 1.53 11.55 4.58c3.05 3.05 4.58 6.9 4.58 11.56c0 4.65-1.52 8.51-4.58 11.55c-3.05 3.05-6.9 4.57-11.55 4.57c-12.72 0-19.07 6.41-19.07 19.23v74.14c0 34.43-17.22 51.65-51.65 51.65c-4.65 0-8.5-1.55-11.55-4.65c-3.05-3.1-4.57-6.98-4.57-11.63c0-4.66 1.52-8.5 4.57-11.55c3.05-3.05 6.9-4.58 11.55-4.58c12.82 0 19.23-6.41 19.23-19.23v-74.14c0-14.89 3.41-26.68 10.23-35.36c-6.82-8.69-10.23-20.47-10.23-35.36v-74.13c0-12.82-6.41-19.23-19.23-19.23c-4.65 0-8.5-1.53-11.55-4.58c-3.05-3.05-4.57-6.9-4.57-11.55c0-4.55 1.52-8.4 4.57-11.55c3.05-3.15 6.9-4.73 11.55-4.73c34.43 0 51.65 17.22 51.65 51.65z" />
			</g>
			<path id="FALCON" fill="#2b2e34" aria-label="FALCON"  d="m106 83.84h97.24v24.64h-71.5v45.1h62.26v24.42h-62.26v66h-25.74v-160.16zm212.52 160.16l-14.74-37.62h-58.3l-15.4 37.62h-25.3l70.84-166.76h1.54l70.84 166.76h-29.48zm-64.02-59.62h40.7l-20.02-50.6l-20.68 50.6zm120.78-100.54h25.74v135.52h78.98v24.64h-104.72v-160.16zm278.08 80.3q0-22 11-40.7q11-18.92 29.7-30.14q18.92-11.22 41.14-11.22q22 0 40.7 11.22q18.92 11.22 30.14 30.14q11.22 18.92 11.22 40.7q0 22.22-11.22 40.92q-11 18.7-29.92 29.7q-18.92 11-40.92 11q-22.22 0-41.14-10.78q-18.7-11-29.7-29.7q-11-18.7-11-41.14zm26.4 0q0 15.62 7.48 28.6q7.48 12.98 20.24 20.68q12.98 7.7 28.38 7.7q15.18 0 27.72-7.48q12.54-7.7 19.8-20.68q7.48-13.2 7.48-28.82q0-15.62-7.48-28.82q-7.48-13.2-20.24-20.9q-12.76-7.7-27.94-7.7q-15.4 0-28.16 7.7q-12.54 7.7-20.02 20.9q-7.26 13.2-7.26 28.82zm287.54-80.3h25.52v165.88h-0.66l-115.5-111.98l0.66 106.26h-25.96v-165.66h1.32l115.06 113.3l-0.44-107.8z" />
			<path id="FALCON" fill="#eb8121" aria-label="FALCON"  d="m629.16 231.46q-7.04 5.06-19.58 9.68q-12.32 4.62-27.06 4.62q-24.86 0-43.56-10.78q-18.48-11-28.6-29.26q-9.9-18.48-9.9-40.48q0-23.98 9.9-42.9q10.12-18.92 27.94-29.48q18.04-10.78 40.92-10.78q14.08 0 25.96 3.74q12.1 3.74 21.34 9.46l-10.12 23.98q-17.82-12.54-36.3-12.54q-14.08 0-26.4 7.7q-12.1 7.48-19.36 20.68q-7.26 12.98-7.26 28.6q0 16.5 6.6 29.7q6.82 12.98 19.14 20.46q12.54 7.26 28.82 7.26q11.66 0 20.9-3.52q9.46-3.52 15.84-9.02l10.78 22.88z" />
		</g>
	</g>
</svg>