<svg xmlns="http://www.w3.org/2000/svg" width="1198" height="76" viewBox="0 0 1198 76">
  <defs>
    <style>
      .cls-1 {
        fill: #fff;
        fill-rule: evenodd;
      }
    </style>
  </defs>
  <path id="Let_s_Make_Wealth_Collectively_copy" data-name="Let&apos;s Make Wealth Collectively copy" class="cls-1" d="M5.9,59.712V1.382H-0.169v58.33H5.9Zm25.809,0V54.2H4.305v5.513H31.712Zm36.435-.32a16.943,16.943,0,0,0,6.472-4.754,15.8,15.8,0,0,0,3.356-7.311H72.382a10.265,10.265,0,0,1-4.235,5.953A14.78,14.78,0,0,1,59.2,55.8a14.9,14.9,0,0,1-8.59-2.317,13.782,13.782,0,0,1-5.034-6.272,22.648,22.648,0,0,1-1.638-8.749,21.981,21.981,0,0,1,1.638-8.709A14.189,14.189,0,0,1,50.488,23.6a13.9,13.9,0,0,1,8.23-2.317,14.233,14.233,0,0,1,7.87,2.038,12.951,12.951,0,0,1,4.794,5.593,19.6,19.6,0,0,1,1.638,8.27l1.518-2.317H40.9V39.5H78.694V36.38a22.255,22.255,0,0,0-2.237-9.868,18.935,18.935,0,0,0-6.672-7.551A19.535,19.535,0,0,0,58.718,16a20.586,20.586,0,0,0-9.069,1.878,18.768,18.768,0,0,0-6.432,4.994,20.913,20.913,0,0,0-3.8,7.031,26.318,26.318,0,0,0-1.239,7.99v1.119a26.569,26.569,0,0,0,1.239,8.07,21.339,21.339,0,0,0,3.8,7.071,18.258,18.258,0,0,0,6.552,5.034A21.984,21.984,0,0,0,59.2,61.07,22.534,22.534,0,0,0,68.147,59.392Zm44.106,0.8V54.758h-7.591A7.761,7.761,0,0,1,98.989,52.8a7.532,7.532,0,0,1-2-5.633V4.1H91.239V46.288A16.647,16.647,0,0,0,93,54.558a9.735,9.735,0,0,0,4.954,4.355,20.411,20.411,0,0,0,7.59,1.278h6.712Zm0-38.194V17.443H83.648V22h28.605Zm16.859,0.32V1.382h-5.194V22.317h5.194Zm37.873,36.915a13.9,13.9,0,0,0,5.953-4.674,11.421,11.421,0,0,0,2.117-6.752,9.866,9.866,0,0,0-4.035-8.47,21.4,21.4,0,0,0-10.427-3.675l-4.794-.48q-3.917-.4-5.753-2.117a5.7,5.7,0,0,1-1.838-4.355,6.776,6.776,0,0,1,2.437-5.274q2.436-2.157,7.391-2.157,4.794,0,7.271,2.078a6.678,6.678,0,0,1,2.557,5.114h5.593A10.9,10.9,0,0,0,169.1,19.36q-4.276-3.195-11.067-3.2a19.879,19.879,0,0,0-8.19,1.558,12.61,12.61,0,0,0-5.394,4.355,11.306,11.306,0,0,0-1.917,6.552,9.822,9.822,0,0,0,3.555,8.03,17.345,17.345,0,0,0,9.309,3.556l4.794,0.479a14.151,14.151,0,0,1,6.832,2.2,5.636,5.636,0,0,1,2.357,4.834,7.185,7.185,0,0,1-2.836,5.713q-2.838,2.358-8.51,2.357-6.074,0-8.67-2.477a8.1,8.1,0,0,1-2.756-5.513h-5.593a11.86,11.86,0,0,0,4.474,9.548q4.393,3.554,12.545,3.556A22.174,22.174,0,0,0,166.985,59.232Zm45.543,0.479V8.174l-0.639.08,17.819,39.153h7.99L255.437,8.254l-0.48-.08V59.712h6.073V1.382h-8.07l-18.3,40.351h-1.439L214.846,1.382h-7.911v58.33h5.593Zm95.884,0V32.545a18.9,18.9,0,0,0-1.837-8.989,11,11,0,0,0-5.793-4.994,28.316,28.316,0,0,0-10.428-1.6q-1.839,0-3.795.04t-3.8.2q-1.839.161-3.595,0.32V22.8q1.677-.159,3.875-0.28t4.635-.2q2.436-.079,4.834-0.08,5.193,0,7.67,2.517t2.477,7.231V47.007h0.959v12.7h4.794Zm-11.426-.479a12.244,12.244,0,0,0,5.194-4.754,17.215,17.215,0,0,0,2.237-7.87l-1.758-2.477a13.021,13.021,0,0,1-2,7.151,10.1,10.1,0,0,1-4.555,3.675,15.236,15.236,0,0,1-5.673,1.079,11.4,11.4,0,0,1-7.591-2.357,7.874,7.874,0,0,1-2.8-6.352,8.187,8.187,0,0,1,2.677-6.352q2.676-2.436,7.71-2.437h12.785V33.983H290.834a23.218,23.218,0,0,0-8.989,1.558,12.275,12.275,0,0,0-5.674,4.514,12.737,12.737,0,0,0-1.957,7.191,13.7,13.7,0,0,0,1.878,7.351,12.036,12.036,0,0,0,5.313,4.634,18.569,18.569,0,0,0,7.911,1.6A17.317,17.317,0,0,0,296.986,59.232Zm62.164,0.479L337.1,34.223,336.7,37.5l17.978-20.056h-6.392L328.227,39.9H335.1l17.02,19.816h7.031Zm-29.8,0V1.382h-5.993v58.33h5.993Zm64.482-.32a16.943,16.943,0,0,0,6.472-4.754,15.8,15.8,0,0,0,3.356-7.311h-5.593a10.264,10.264,0,0,1-4.235,5.953,17.125,17.125,0,0,1-17.539.2,13.779,13.779,0,0,1-5.034-6.272,22.655,22.655,0,0,1-1.638-8.749,21.988,21.988,0,0,1,1.638-8.709,14.186,14.186,0,0,1,4.914-6.153,13.906,13.906,0,0,1,8.23-2.317,14.234,14.234,0,0,1,7.871,2.038,12.96,12.96,0,0,1,4.794,5.593,19.6,19.6,0,0,1,1.638,8.27l1.518-2.317H366.581V39.5h37.794V36.38a22.264,22.264,0,0,0-2.237-9.868,18.939,18.939,0,0,0-6.672-7.551A19.537,19.537,0,0,0,384.4,16a20.587,20.587,0,0,0-9.069,1.878,18.769,18.769,0,0,0-6.432,4.994,20.914,20.914,0,0,0-3.8,7.031,26.3,26.3,0,0,0-1.239,7.99v1.119a26.554,26.554,0,0,0,1.239,8.07,21.34,21.34,0,0,0,3.8,7.071,18.259,18.259,0,0,0,6.552,5.034,21.986,21.986,0,0,0,9.429,1.878A22.535,22.535,0,0,0,393.828,59.392Zm62.882,0.32,13.1-55.773h-5.753L452.156,55.8l3.036-1.6h-7.751l2.8,1.6L435.616,1.382h-6.233l16.141,58.33H456.71Zm35.078,0L506.57,1.382H500.5L487.313,55.8l3.037-1.6h-7.911l2.957,1.6L472.132,3.939h-5.913L480.6,59.712h11.187Zm51.777-.32a16.943,16.943,0,0,0,6.472-4.754,15.8,15.8,0,0,0,3.356-7.311H547.8a10.264,10.264,0,0,1-4.235,5.953,17.125,17.125,0,0,1-17.539.2,13.792,13.792,0,0,1-5.034-6.272,22.655,22.655,0,0,1-1.638-8.749,21.988,21.988,0,0,1,1.638-8.709,14.2,14.2,0,0,1,4.914-6.153,13.908,13.908,0,0,1,8.231-2.317,14.233,14.233,0,0,1,7.87,2.038,12.946,12.946,0,0,1,4.794,5.593,19.6,19.6,0,0,1,1.638,8.27l1.518-2.317H516.318V39.5h37.794V36.38a22.251,22.251,0,0,0-2.237-9.868,18.931,18.931,0,0,0-6.672-7.551A19.534,19.534,0,0,0,534.137,16a20.592,20.592,0,0,0-9.07,1.878,18.769,18.769,0,0,0-6.432,4.994,20.914,20.914,0,0,0-3.795,7.031A26.3,26.3,0,0,0,513.6,37.9v1.119a26.554,26.554,0,0,0,1.239,8.07,21.34,21.34,0,0,0,3.795,7.071,18.259,18.259,0,0,0,6.552,5.034,21.986,21.986,0,0,0,9.429,1.878A22.531,22.531,0,0,0,543.565,59.392Zm52.576,0.32V32.545a18.9,18.9,0,0,0-1.838-8.989,11,11,0,0,0-5.793-4.994,28.307,28.307,0,0,0-10.427-1.6q-1.839,0-3.795.04t-3.8.2q-1.839.161-3.6,0.32V22.8q1.678-.159,3.876-0.28t4.634-.2q2.436-.079,4.834-0.08,5.193,0,7.671,2.517t2.477,7.231V47.007h0.959v12.7h4.794Zm-11.426-.479a12.256,12.256,0,0,0,5.194-4.754,17.239,17.239,0,0,0,2.237-7.87l-1.758-2.477a13.021,13.021,0,0,1-2,7.151,10.1,10.1,0,0,1-4.554,3.675,15.239,15.239,0,0,1-5.673,1.079,11.4,11.4,0,0,1-7.591-2.357,7.875,7.875,0,0,1-2.8-6.352,8.191,8.191,0,0,1,2.677-6.352q2.676-2.436,7.711-2.437h12.784V33.983H578.562a23.221,23.221,0,0,0-8.989,1.558,12.272,12.272,0,0,0-5.673,4.514,12.73,12.73,0,0,0-1.958,7.191A13.707,13.707,0,0,0,563.82,54.6a12.039,12.039,0,0,0,5.314,4.634,18.561,18.561,0,0,0,7.91,1.6A17.321,17.321,0,0,0,584.715,59.232Zm32.759,0.479V1.382h-5.993v58.33h5.993Zm0-53.455V1.382H605.329V6.256h12.145Zm37.554,53.935V54.758h-7.591a7.761,7.761,0,0,1-5.673-1.958,7.533,7.533,0,0,1-2-5.633V4.1h-5.753V46.288a16.651,16.651,0,0,0,1.758,8.27,9.735,9.735,0,0,0,4.954,4.355,20.415,20.415,0,0,0,7.591,1.278h6.712Zm0-38.194V17.443H626.422V22h28.606Zm17.578,37.714V34.862a13.519,13.519,0,0,1,3.356-9.548,11.69,11.69,0,0,1,9.029-3.636,11.036,11.036,0,0,1,8.39,3.276Q696.5,28.231,696.5,33.9V59.712h5.913V35.181q0-8.948-3.956-13.983t-11.626-5.034h-0.319a14.885,14.885,0,0,0-8.75,2.437,14.568,14.568,0,0,0-5.193,6.832,28.222,28.222,0,0,0-1.718,10.308l1.758-1.358v-33h-5.993v58.33h5.993ZM775.48,58.273a22.838,22.838,0,0,0,8.829-7.631,25.687,25.687,0,0,0,4.155-10.827h-6.152A17.411,17.411,0,0,1,775.6,51.442a21.888,21.888,0,0,1-13.424,4.035,23.347,23.347,0,0,1-10.068-2.037,20.19,20.19,0,0,1-7.191-5.593,24,24,0,0,1-4.275-8.03,31.129,31.129,0,0,1-1.4-9.349,31.539,31.539,0,0,1,1.438-9.628,24.43,24.43,0,0,1,4.235-7.99,19.324,19.324,0,0,1,6.991-5.433,22.736,22.736,0,0,1,9.709-1.958,23.872,23.872,0,0,1,9.308,1.758,16.9,16.9,0,0,1,6.912,5.234,17.2,17.2,0,0,1,3.356,8.67h6.152a24.132,24.132,0,0,0-4-11.226A22,22,0,0,0,774.6,2.5a33.226,33.226,0,0,0-25.849-.04,25.163,25.163,0,0,0-8.909,6.912A28.664,28.664,0,0,0,734.729,19a36.043,36.043,0,0,0-1.638,10.667v1.518a34.771,34.771,0,0,0,1.6,10.188,30,30,0,0,0,5.074,9.708,25.646,25.646,0,0,0,9.029,7.231,29.836,29.836,0,0,0,13.384,2.757A29.294,29.294,0,0,0,775.48,58.273Zm52.456,0.919a20.73,20.73,0,0,0,6.991-5.034,21.674,21.674,0,0,0,4.275-7.071,23,23,0,0,0,1.438-7.99V37.978a22.785,22.785,0,0,0-1.478-8.03,21.356,21.356,0,0,0-4.355-7.071,21.576,21.576,0,0,0-6.991-4.994,24.61,24.61,0,0,0-18.857,0,21.569,21.569,0,0,0-6.992,4.994,21.9,21.9,0,0,0-4.395,7.072,22.246,22.246,0,0,0-1.518,8.03V39.1a22.619,22.619,0,0,0,5.793,15.062,20.81,20.81,0,0,0,6.952,5.034,22.8,22.8,0,0,0,9.548,1.878A23.09,23.09,0,0,0,827.936,59.192Zm-18.418-5.833a15.46,15.46,0,0,1-5.553-6.233,19.088,19.088,0,0,1-1.918-8.59,18.943,18.943,0,0,1,1.958-8.67,15.113,15.113,0,0,1,5.633-6.153,16.2,16.2,0,0,1,8.709-2.277,16.362,16.362,0,0,1,8.79,2.277,15.141,15.141,0,0,1,5.633,6.153,18.956,18.956,0,0,1,1.958,8.67,19.1,19.1,0,0,1-1.918,8.59,15.482,15.482,0,0,1-5.553,6.233,16.038,16.038,0,0,1-8.91,2.357A15.877,15.877,0,0,1,809.518,53.359Zm49.739,6.352V1.382h-5.993v58.33h5.993Zm0-53.455V1.382H847.112V6.256h12.145ZM881.15,59.712V1.382h-5.993v58.33h5.993Zm0-53.455V1.382H869V6.256H881.15Zm42.108,53.136a16.95,16.95,0,0,0,6.472-4.754,15.8,15.8,0,0,0,3.356-7.311h-5.593a10.273,10.273,0,0,1-4.235,5.953,17.125,17.125,0,0,1-17.539.2,13.779,13.779,0,0,1-5.034-6.272,22.655,22.655,0,0,1-1.638-8.749,21.988,21.988,0,0,1,1.638-8.709A14.186,14.186,0,0,1,905.6,23.6a13.906,13.906,0,0,1,8.23-2.317,14.234,14.234,0,0,1,7.871,2.038,12.96,12.96,0,0,1,4.794,5.593,19.6,19.6,0,0,1,1.638,8.27l1.518-2.317H896.011V39.5h37.794V36.38a22.264,22.264,0,0,0-2.237-9.868,18.939,18.939,0,0,0-6.672-7.551A19.537,19.537,0,0,0,913.829,16a20.587,20.587,0,0,0-9.069,1.878,18.769,18.769,0,0,0-6.432,4.994,20.917,20.917,0,0,0-3.8,7.031,26.333,26.333,0,0,0-1.238,7.99v1.119a26.584,26.584,0,0,0,1.238,8.07,21.342,21.342,0,0,0,3.8,7.071,18.259,18.259,0,0,0,6.552,5.034,21.983,21.983,0,0,0,9.429,1.878A22.538,22.538,0,0,0,923.258,59.392Zm49.38-.28a17.875,17.875,0,0,0,6.911-5.513,15.255,15.255,0,0,0,3-8.35h-5.753a10.613,10.613,0,0,1-2.118,5.274,12.548,12.548,0,0,1-4.714,3.8,15.645,15.645,0,0,1-6.832,1.4,13.691,13.691,0,0,1-13.5-8.67,21.776,21.776,0,0,1-1.678-8.59,21.41,21.41,0,0,1,1.678-8.59,14.062,14.062,0,0,1,4.994-6.153,14.418,14.418,0,0,1,8.35-2.277q5.832,0,9.229,2.916a11.894,11.894,0,0,1,4.115,7.311h5.753a16.664,16.664,0,0,0-3.036-8.31,16.943,16.943,0,0,0-6.672-5.433A21.985,21.985,0,0,0,962.969,16a21.116,21.116,0,0,0-9.149,1.878,19.17,19.17,0,0,0-6.592,5.034,21.869,21.869,0,0,0-3.955,7.032,24.523,24.523,0,0,0-1.318,7.95v1.119a24.632,24.632,0,0,0,1.318,7.91,22.7,22.7,0,0,0,3.955,7.151,18.721,18.721,0,0,0,6.592,5.114,21.518,21.518,0,0,0,9.309,1.878A22.412,22.412,0,0,0,972.638,59.112Zm42.982,1.079V54.758h-7.59a7.753,7.753,0,0,1-5.67-1.958,7.541,7.541,0,0,1-2-5.633V4.1h-5.75V46.288a16.651,16.651,0,0,0,1.758,8.27,9.739,9.739,0,0,0,4.952,4.355,20.41,20.41,0,0,0,7.59,1.278h6.71Zm0-38.194V17.443h-28.6V22h28.6Zm19.74,37.714V17.443h-5.91V59.712h5.91Zm0-37.475V17.443h-12.7v4.794h12.7Zm-1.44-13.783a4.216,4.216,0,0,0,1.04-2.916,4.22,4.22,0,0,0-1.04-2.916,4.077,4.077,0,0,0-3.19-1.159,4.224,4.224,0,0,0-3.24,1.159,4.113,4.113,0,0,0-1.08,2.916,4.108,4.108,0,0,0,1.08,2.916,4.219,4.219,0,0,0,3.24,1.159A4.073,4.073,0,0,0,1033.92,8.454Zm32.6,51.258-14.7-42.269h-6.15l14.86,42.269h5.99Zm3.2,0V54.838h-7.59v4.874h7.59Zm1.36,0,13.1-42.269h-5.91L1065.4,59.712h5.68Zm50.34-.32a17.043,17.043,0,0,0,6.47-4.754,15.807,15.807,0,0,0,3.35-7.311h-5.59a10.241,10.241,0,0,1-4.23,5.953,17.127,17.127,0,0,1-17.54.2,13.753,13.753,0,0,1-5.04-6.272,22.693,22.693,0,0,1-1.64-8.749,22.023,22.023,0,0,1,1.64-8.709,14.156,14.156,0,0,1,4.92-6.153,13.883,13.883,0,0,1,8.23-2.317,14.249,14.249,0,0,1,7.87,2.038,12.951,12.951,0,0,1,4.79,5.593,19.617,19.617,0,0,1,1.64,8.27l1.52-2.317h-33.64V39.5h37.79V36.38a22.259,22.259,0,0,0-2.23-9.868,18.99,18.99,0,0,0-6.68-7.551A19.5,19.5,0,0,0,1111.99,16a20.561,20.561,0,0,0-9.07,1.878,18.667,18.667,0,0,0-6.43,4.994,20.926,20.926,0,0,0-3.8,7.031,26.212,26.212,0,0,0-1.24,7.99v1.119a26.462,26.462,0,0,0,1.24,8.07,21.352,21.352,0,0,0,3.8,7.071,18.166,18.166,0,0,0,6.55,5.034,21.959,21.959,0,0,0,9.43,1.878A22.591,22.591,0,0,0,1121.42,59.392Zm28.44,0.32V1.382h-5.99v58.33h5.99Zm0-53.455V1.382h-12.14V6.256h12.14Zm16.86,69.916a21,21,0,0,0,7.11-1.119,12.863,12.863,0,0,0,5.35-3.636,17.8,17.8,0,0,0,3.52-6.592l14.86-47.383h-5.83l-14.22,45.7a14.581,14.581,0,0,1-2.32,4.634,7.292,7.292,0,0,1-3.36,2.357,14.97,14.97,0,0,1-4.79.679h-5.43v5.354h5.11Zm16.22-17.5V53.639h-7.59v5.034h7.59Zm-2.72,0-14.78-41.23h-6.15l15.34,41.23h5.59Z"/>
</svg>
