<?xml version="1.0" standalone="no"?>
<!DOCTYPE svg PUBLIC "-//W3C//DTD SVG 20010904//EN"
 "http://www.w3.org/TR/2001/REC-SVG-20010904/DTD/svg10.dtd">
<svg version="1.0" xmlns="http://www.w3.org/2000/svg"
 width="800.000000pt" height="800.000000pt" viewBox="0 0 800.000000 800.000000"
 preserveAspectRatio="xMidYMid meet">
<metadata>
Created by potrace 1.14, written by Peter Selinger 2001-2017
</metadata>
<g transform="translate(0.000000,800.000000) scale(0.100000,-0.100000)"
fill="#000000" stroke="none">
<path d="M1638 7345 c-2 -2 -30 -6 -63 -10 -33 -3 -89 -13 -125 -22 -36 -8
-73 -16 -82 -18 -9 -2 -27 -9 -40 -16 -13 -7 -23 -11 -23 -10 0 6 -65 -22
-120 -51 -149 -78 -273 -209 -347 -368 -30 -64 -55 -137 -63 -182 -3 -17 -8
-35 -10 -38 -3 -4 -7 -29 -10 -56 -3 -27 -8 -56 -11 -66 -11 -37 -13 -189 -14
-1009 0 -471 -4 -859 -7 -863 -4 -3 -8 -23 -10 -43 -2 -21 -8 -40 -12 -43 -4
-3 -11 -17 -14 -31 -9 -34 -83 -112 -132 -136 -58 -29 -103 -38 -232 -48 -158
-11 -264 -88 -308 -223 -17 -52 -17 -156 -2 -220 11 -43 56 -110 99 -146 58
-50 126 -73 239 -80 53 -3 119 -13 148 -22 63 -18 146 -84 178 -141 52 -94 52
-102 54 -1018 1 -954 1 -951 26 -1070 2 -11 6 -31 8 -45 6 -36 50 -168 72
-215 110 -238 302 -388 587 -460 118 -30 198 -39 346 -39 103 0 121 3 172 26
123 57 191 168 190 308 -1 92 -1 93 -36 163 -51 105 -149 164 -286 173 -161
11 -236 36 -304 101 -20 20 -46 53 -56 73 -45 89 -46 107 -46 1007 1 469 -1
853 -4 853 -3 0 -6 24 -6 53 -2 55 -9 116 -19 157 -3 14 -7 34 -9 45 -11 82
-79 244 -140 333 l-36 54 28 41 c55 82 82 136 113 229 18 51 33 100 34 108 1
8 5 29 8 45 4 17 9 40 11 51 15 77 19 297 20 1054 2 808 3 858 21 912 26 81
79 146 145 179 85 44 94 46 210 53 104 7 154 21 214 61 50 34 102 100 126 162
14 36 17 139 7 197 -10 52 -52 129 -93 165 -18 16 -56 43 -86 58 -49 26 -62
28 -180 29 -70 1 -128 0 -130 -1z"/>
<path d="M6125 7344 c-114 -30 -183 -83 -231 -179 -30 -62 -35 -85 -35 -153 1
-104 36 -188 103 -247 68 -61 126 -82 243 -89 163 -10 233 -38 313 -127 24
-27 58 -115 68 -176 4 -21 7 -434 8 -918 1 -484 5 -896 9 -915 4 -19 8 -48 11
-65 19 -143 81 -319 141 -400 49 -67 50 -71 11 -129 -61 -92 -125 -250 -141
-350 -13 -75 -18 -102 -23 -121 -2 -11 -6 -420 -7 -910 -1 -489 -5 -910 -9
-935 -15 -111 -78 -208 -163 -252 -66 -35 -91 -40 -243 -53 -85 -7 -87 -8
-140 -32 -90 -41 -162 -138 -177 -238 -9 -66 0 -162 19 -200 52 -100 115 -157
207 -185 74 -23 264 -20 401 6 14 3 38 7 54 10 57 11 183 56 254 92 238 118
400 363 448 677 3 22 8 51 11 65 2 14 6 423 7 910 3 830 7 971 26 1010 5 8 14
29 20 47 7 17 29 50 50 71 65 69 141 99 273 107 51 4 110 11 132 17 87 22 158
85 203 178 22 46 26 69 26 140 0 71 -4 94 -26 142 -55 119 -156 185 -294 193
-120 8 -154 14 -216 42 -87 39 -157 124 -172 209 -3 13 -8 29 -12 36 -4 6 -8
417 -9 912 -1 496 -6 928 -10 961 -6 51 -21 122 -41 200 -3 11 -6 25 -8 30
-14 60 -77 189 -126 259 -33 47 -114 133 -150 159 -56 39 -125 82 -132 80 -3
-1 -12 4 -18 12 -7 8 -20 15 -29 15 -9 0 -21 4 -27 8 -7 7 -105 39 -174 58
-76 20 -378 40 -425 28z"/>
<path d="M2910 4006 l0 -2042 328 0 327 1 1 830 c1 457 2 835 3 841 1 7 233
10 787 10 689 -1 787 1 793 14 4 8 7 148 6 310 l-1 295 -794 5 -794 5 0 567
c0 312 2 570 6 573 3 3 14 6 24 6 32 -1 54 -1 67 0 6 0 365 0 797 -1 432 0
818 0 858 0 l72 0 0 314 0 314 -1240 0 -1240 0 0 -2042z"/>
</g>
</svg>
